<svg xmlns="http://www.w3.org/2000/svg" viewBox="0 0 24 24" width="24" height="24">
  <rect x="2" y="2" width="20" height="20" rx="2" ry="2" fill="#0288d1" />
  <path d="M7,7v2c0,1.1-0.9,2-2,2v2c1.1,0,2,0.9,2,2v2h2v-1.5H8v-3c0-0.83-0.67-1.5-1.5-1.5c0.83,0,1.5-0.67,1.5-1.5v-3h1V5H7V7z" fill="white" />
  <path d="M17,7v2c0,1.1,0.9,2,2,2v2c-1.1,0-2,0.9-2,2v2h-2v-1.5h1v-3c0-0.83,0.67-1.5,1.5-1.5 c-0.83,0-1.5-0.67-1.5-1.5v-3h-1V5h2V7z" fill="white" />
  <path d="M12,9c1.1,0,2,0.9,2,2s-0.9,2-2,2s-2-0.9-2-2S10.9,9,12,9 M12,7c-2.21,0-4,1.79-4,4s1.79,4,4,4s4-1.79,4-4 S14.21,7,12,7L12,7z" fill="white" />
</svg> 