<svg width="400" height="400" viewBox="0 0 400 400" xmlns="http://www.w3.org/2000/svg">
  <rect width="400" height="400" rx="80" fill="#364CD5"/>
  <path d="M200 50 C270 50, 320 90, 350 150 C360 170, 345 195, 325 190 C310 185, 305 170, 300 150 C290 115, 255 90, 200 90 C145 90, 110 115, 100 150 C95 170, 90 185, 75 190 C55 195, 40 170, 50 150 C80 90, 130 50, 200 50 Z" fill="#FFFBF5"/>
  <path d="M200 350 C130 350, 80 310, 50 250 C40 230, 55 205, 75 210 C90 215, 95 230, 100 250 C110 285, 145 310, 200 310 C255 310, 290 285, 300 250 C305 230, 310 215, 325 210 C345 205, 360 230, 350 250 C320 310, 270 350, 200 350 Z" fill="#FFFBF5"/>
  <path d="M100 200 C100 150, 120 120, 140 110 C160 100, 180 115, 175 135 C170 150, 155 155, 140 160 C115 165, 110 190, 110 200 C110 210, 115 235, 140 240 C155 245, 170 250, 175 265 C180 285, 160 300, 140 290 C120 280, 100 250, 100 200 Z" fill="#FFFBF5"/>
  <path d="M300 200 C300 150, 280 120, 260 110 C240 100, 220 115, 225 135 C230 150, 245 155, 260 160 C285 165, 290 190, 290 200 C290 210, 285 235, 260 240 C245 245, 230 250, 225 265 C220 285, 240 300, 260 290 C280 280, 300 250, 300 200 Z" fill="#FFFBF5"/>
</svg> 